<?xml version="1.0" standalone="no"?>
<!DOCTYPE svg PUBLIC "-//W3C//DTD SVG 20010904//EN"
 "http://www.w3.org/TR/2001/REC-SVG-20010904/DTD/svg10.dtd">
<svg version="1.0" xmlns="http://www.w3.org/2000/svg"
 width="1902.000000pt" height="1902.000000pt" viewBox="0 0 1902.000000 1902.000000"
 preserveAspectRatio="xMidYMid meet">
<metadata>
Created by potrace 1.14, written by Peter Selinger 2001-2017
</metadata>
<g transform="translate(0.000000,1902.000000) scale(0.100000,-0.100000)"
fill="#000000" stroke="none">
<path d="M2819 19015 c-2 -1 -33 -6 -68 -9 -79 -8 -231 -39 -319 -66 -302 -92
-534 -233 -767 -465 -144 -143 -226 -254 -304 -412 -95 -191 -140 -348 -168
-593 -5 -36 -8 -3629 -8 -7985 0 -7571 1 -7924 18 -8015 57 -301 136 -484 327
-754 50 -71 200 -226 285 -294 39 -31 72 -59 75 -62 15 -15 108 -76 181 -118
202 -116 476 -205 704 -229 89 -10 322 -10 400 -1 185 21 390 86 575 181 56
29 194 109 540 314 107 63 209 123 226 133 17 10 42 24 55 32 12 7 28 17 33
21 6 4 180 107 386 228 206 122 440 260 520 308 80 47 149 88 155 90 5 2 60
35 122 73 61 37 116 68 122 68 6 0 11 5 11 10 0 6 4 10 9 10 5 0 138 77 297
171 159 94 305 180 324 191 19 11 132 78 250 148 229 136 237 141 357 211 43
25 179 106 303 179 231 136 383 226 620 365 74 44 137 83 138 87 2 4 8 8 12 8
7 0 812 471 940 549 112 69 254 151 261 151 5 0 9 5 9 10 0 6 4 10 9 10 6 0
88 46 183 103 95 57 286 170 423 251 138 81 257 152 265 157 121 73 423 249
427 249 3 0 19 10 36 23 18 12 45 29 62 38 49 27 196 113 795 469 107 64 247
146 310 184 63 37 122 72 130 77 63 38 431 255 455 268 17 9 67 39 113 66 45
28 90 55 100 60 46 27 139 81 154 90 9 6 63 37 120 71 136 80 520 307 681 403
70 42 141 84 157 93 16 9 179 105 362 214 183 108 347 205 365 215 17 10 49
29 70 42 21 13 43 26 48 28 6 2 69 39 140 82 170 102 161 97 222 134 30 18 55
33 57 33 3 0 68 38 147 85 78 47 143 85 146 85 2 0 16 8 31 19 15 10 133 81
262 156 129 76 263 155 297 176 34 22 65 39 68 39 2 0 36 20 75 45 39 25 72
45 74 45 4 0 116 66 451 266 152 90 198 117 225 130 33 16 208 130 255 166 28
21 61 47 75 58 55 41 181 169 243 247 148 185 281 467 323 688 2 11 8 43 14
70 19 91 21 119 24 280 5 186 -5 286 -45 454 -83 356 -269 664 -544 897 -61
52 -201 154 -210 154 -3 0 -11 5 -18 10 -7 6 -70 45 -142 87 -71 42 -176 104
-232 137 -57 34 -115 68 -130 76 -16 9 -100 59 -188 111 -88 52 -167 98 -175
102 -8 4 -27 15 -41 25 -15 9 -53 32 -85 51 -33 19 -90 53 -129 76 -81 48
-411 243 -600 355 -71 42 -206 122 -300 177 -93 55 -271 160 -395 233 -124 73
-237 141 -252 151 -15 10 -29 19 -32 19 -3 0 -60 33 -128 73 -152 91 -366 218
-393 233 -11 6 -78 46 -150 89 -71 42 -146 86 -165 97 -37 21 -312 184 -585
346 -88 52 -173 103 -190 112 -16 10 -176 104 -355 210 -179 106 -338 200
-355 210 -16 9 -77 45 -135 80 -58 34 -121 71 -140 82 -19 11 -94 56 -166 99
-73 43 -134 79 -137 79 -4 0 -26 14 -50 30 -25 17 -50 30 -56 30 -6 0 -11 5
-11 10 0 6 -4 10 -10 10 -5 0 -40 19 -77 42 -38 22 -81 49 -98 58 -16 9 -176
103 -354 209 -178 105 -328 191 -332 191 -5 0 -9 5 -9 10 0 6 -4 10 -10 10 -5
0 -49 24 -97 53 -49 30 -109 65 -133 79 -25 14 -285 168 -579 342 -294 174
-535 316 -538 316 -2 0 -27 15 -56 34 -28 18 -126 77 -217 130 -91 54 -172
102 -180 107 -8 5 -51 30 -95 55 -71 42 -478 281 -547 323 -15 9 -64 38 -110
66 -46 27 -96 57 -113 66 -16 9 -97 57 -180 106 -82 49 -274 162 -425 252
-151 89 -282 167 -290 172 -30 18 -276 162 -305 179 -16 9 -77 45 -135 80 -58
34 -125 74 -150 87 -25 14 -61 35 -80 48 -19 12 -141 84 -270 160 -129 76
-246 145 -260 154 -14 8 -34 21 -45 26 -11 6 -208 123 -439 259 -230 136 -433
256 -451 266 -18 10 -70 41 -115 69 -45 28 -83 51 -85 51 -1 0 -43 24 -92 54
-49 29 -109 64 -133 78 -25 14 -101 59 -170 100 -403 241 -451 267 -595 320
-72 27 -226 67 -315 83 -38 7 -386 16 -391 10z m5076 -5437 l-1 -928 51 -1
c27 0 389 -1 803 -1 l752 0 0 -714 0 -714 -82 0 c-46 -1 -403 -1 -793 -1 -391
0 -716 -3 -722 -7 -9 -6 -11 -371 -9 -1547 2 -847 7 -1559 10 -1583 14 -87 47
-196 78 -259 91 -185 332 -304 618 -305 304 -1 671 103 858 243 l52 40 0 -694
0 -693 -72 -42 c-40 -23 -100 -53 -133 -67 -33 -14 -69 -30 -80 -35 -120 -55
-406 -121 -642 -147 -87 -10 -490 -10 -608 -1 -593 49 -1021 256 -1277 618
-232 328 -352 788 -383 1460 -2 41 -4 737 -4 1547 l-1 1471 -372 1 c-205 0
-393 0 -418 0 l-45 1 0 299 c0 165 2 301 5 303 3 2 39 22 80 43 217 112 451
272 695 476 48 40 315 306 371 369 170 194 335 436 456 670 59 116 138 290
138 305 0 4 7 21 15 38 30 66 124 382 139 470 3 15 7 35 10 45 6 21 12 51 33
173 l16 96 231 -1 231 -1 0 -927z"/>
</g>
</svg>
