<svg xmlns="http://www.w3.org/2000/svg" viewBox="0 0 3908 1290.69"><defs><style>.cls-1{fill:#ff791f;}.cls-2{fill:#272727;}</style></defs><g id="Layer_2" data-name="Layer 2"><g id="Layer_1-2" data-name="Layer 1"><path class="cls-1" d="M710.31,765.23q-26.14,15.32-58.26,15.31a109.71,109.71,0,0,1-47-10.48A124.82,124.82,0,0,1,566.16,742,137.72,137.72,0,0,1,540,598.52a129.81,129.81,0,0,1,65.36-69.66,107.27,107.27,0,0,1,46.68-10.49q33.62,0,57.14,14.19a141.08,141.08,0,0,1,40,35.85l72.46-73.76q-33.61-36.3-77.68-54.1a247.12,247.12,0,0,0-93.37-17.79q-45.7,0-85.9,16v90.78H456.45l-.84,1.35V726.6q0,33,14.2,43.46t34.35,10.48q12.7,0,30.63-4.48t30.62-14.94v94.27c-1.66,1.05-3.37,2.05-5.11,3l1.41.6a231.79,231.79,0,0,0,88.85,17.14q51.54,0,97.1-18.89a215.26,215.26,0,0,0,79.17-56.7L752.14,726A124,124,0,0,1,710.31,765.23Z"/><path class="cls-1" d="M348.06,718.54v-63.9a188.7,188.7,0,0,0-40.33-26.85,322.33,322.33,0,0,0-52.28-20.54q-42.57-12.69-65.36-25.39T167.31,552a28.2,28.2,0,0,1,6-17.55,45,45,0,0,1,15.31-12.7,92.85,92.85,0,0,1,40.71-10.09,104.9,104.9,0,0,1,52.28,13.45q23.9,13.44,42.58,36.6l23.89-24.17v-7.95H291.29V488.49A254.62,254.62,0,0,0,342.17,455q-49.8-33-115.47-33a210.22,210.22,0,0,0-60.64,9,180.38,180.38,0,0,0-53.53,25.77,133.41,133.41,0,0,0-38.18,41.82q-14.59,25-14.6,56.4,0,28.39,11.21,50a134.52,134.52,0,0,0,29.88,38.47,181,181,0,0,0,42.57,28.38,318.43,318.43,0,0,0,49.3,19q43.31,12.71,67.22,25.77t23.9,32.49q0,18.68-16.8,28t-42.21,9.33a112.19,112.19,0,0,1-54.52-13.82q-25.4-13.8-44.82-38.46L60.5,800q31.44,40.34,73,58.63t91,18.3a214.05,214.05,0,0,0,59.14-8.59,178.88,178.88,0,0,0,53.89-25.39,138.72,138.72,0,0,0,27.6-25.52,142.06,142.06,0,0,1-9.93-28.64Q348,758.89,348.06,718.54Z"/><path class="cls-2" d="M281.59,525.09a104.9,104.9,0,0,0-52.28-13.45,92.85,92.85,0,0,0-40.71,10.09,45,45,0,0,0-15.31,12.7,28.2,28.2,0,0,0-6,17.55q0,17.19,22.78,29.88t65.36,25.39a322.33,322.33,0,0,1,52.28,20.54,188.7,188.7,0,0,1,40.33,26.85V537.52l-23.89,24.17Q305.48,538.54,281.59,525.09Z"/><path class="cls-2" d="M1123.5,605.36q-13.86-40.35-54.22-63L947.36,470.27V598.44q0,28.3,12.18,37.29t29.48,9q10.89,0,26.27-3.84a65.76,65.76,0,0,0,26.28-12.82V709a107.82,107.82,0,0,1-32.69,13.35,159.49,159.49,0,0,1-37.17,4.45q-32.67,0-55.11-8t-35.88-24.67q-13.47-16.67-19.55-42.3t-6.09-60.24V429.4h-48.7V394.16q3.27-1.65,6.46-3.38l-631.26-373Q146.27-4.94,103.4,1.37T30.26,39.2Q0,70.72,0,121.16V1170.27q0,45.39,29,78.18t71.88,40.35q42.87,7.56,80.7-15.14L848,879.85V769.05h184.25q1.6,0,3.21,0l33.79-20q40.35-22.7,54.22-63.05A120.81,120.81,0,0,0,1123.5,605.36ZM747.66,857.25q-45.57,18.88-97.1,18.89A231.79,231.79,0,0,1,561.71,859l-1.41-.6a129.4,129.4,0,0,1-33,12.56A186.52,186.52,0,0,1,484,876.14q-38.1,0-64.24-9.33t-41.83-28.76a103.87,103.87,0,0,1-12.85-20.66,138.72,138.72,0,0,1-27.6,25.52,178.88,178.88,0,0,1-53.89,25.39,214.05,214.05,0,0,1-59.14,8.59q-49.42,0-91-18.3T60.5,800l65-65.73q19.42,24.64,44.82,38.46a112.19,112.19,0,0,0,54.52,13.82q25.4,0,42.21-9.33t16.8-28q0-19.42-23.9-32.49t-67.22-25.77a318.43,318.43,0,0,1-49.3-19,181,181,0,0,1-42.57-28.38A134.52,134.52,0,0,1,71,605q-11.2-21.66-11.21-50,0-31.38,14.6-56.4a133.41,133.41,0,0,1,38.18-41.82A180.38,180.38,0,0,1,166.06,431a210.22,210.22,0,0,1,60.64-9q65.67,0,115.47,33a256.61,256.61,0,0,0,37.26-39q35.85-46.31,44.81-109.8h31.37V432.47h109v6.32q40.2-16,85.9-16a247.12,247.12,0,0,1,93.37,17.79q44.05,17.77,77.68,54.1l-72.46,73.76a141.08,141.08,0,0,0-40-35.85q-23.52-14.19-57.14-14.19a107.27,107.27,0,0,0-46.68,10.49A129.81,129.81,0,0,0,540,598.52,136.95,136.95,0,0,0,566.16,742,124.82,124.82,0,0,0,605,770.06a109.71,109.71,0,0,0,47,10.48q32.12,0,58.26-15.31A124,124,0,0,0,752.14,726l74.69,74.54A215.26,215.26,0,0,1,747.66,857.25Z"/><path class="cls-2" d="M947.36,429.4h93.57V346.09H947.36V237.79H920.45Q912.76,292.27,882,332a217.09,217.09,0,0,1-69.16,58.79l134.52,79.49Z"/><path class="cls-2" d="M1431.19,717.14h-92.28V495.41q0-19.86-6.11-34.93a74.39,74.39,0,0,0-16.09-25,63,63,0,0,0-23.18-14.74,79.35,79.35,0,0,0-27.34-4.81,128.12,128.12,0,0,0-40.54,6.41,166.38,166.38,0,0,0-37.33,17.95V717.14H1096V185.88h92.28l.64,182a137.73,137.73,0,0,1,47.42-23.71,188.59,188.59,0,0,1,51.91-7.69,158.73,158.73,0,0,1,54.47,9.29,129.48,129.48,0,0,1,45.5,28.2q19.86,18.91,31.4,47.42T1431.19,489Z"/><path class="cls-2" d="M1884.27,531.29q0,9-1,18.59t-2.24,19.87H1585a122.88,122.88,0,0,0,37.49,55.43q26.6,22.76,67.61,22.75a152.24,152.24,0,0,0,50-8.65q25-8.65,41.65-23.39l58.32,58.31q-38.46,28.84-75.3,40.7a253.15,253.15,0,0,1-77.86,11.85q-41.67,0-77.87-15.38a198.91,198.91,0,0,1-62.8-41.65,194.43,194.43,0,0,1-42-61.84,195.17,195.17,0,0,1,0-151.88,191.93,191.93,0,0,1,42.29-61.84,203.84,203.84,0,0,1,62.81-41.66,193.15,193.15,0,0,1,76.9-15.38,199.33,199.33,0,0,1,75,14.42,204,204,0,0,1,63.45,40,188.22,188.22,0,0,1,43.57,61.2Q1884.26,488.36,1884.27,531.29Zm-96.77-35.88q-10.9-35.24-38.77-56.72a100.85,100.85,0,0,0-63.12-21.46,98.6,98.6,0,0,0-62.17,21.46q-27.56,21.48-38.45,56.72Z"/><path class="cls-2" d="M1193.74,872.86a171.24,171.24,0,0,0-37.55-54.47,173.76,173.76,0,0,0-55.86-36.21,177.63,177.63,0,0,0-64.84-13.1L848,879.85v401.23h99.33V1113.82h84.8a178.08,178.08,0,0,0,68.1-13.14,170.86,170.86,0,0,0,55.89-36.53,174,174,0,0,0,37.58-55.11,169.06,169.06,0,0,0,13.81-68.25Q1207.54,904.27,1193.74,872.86ZM1100.84,977a101.26,101.26,0,0,1-20.18,31.08,98.21,98.21,0,0,1-30.12,21.47,87.43,87.43,0,0,1-37.17,8h-66V844h66a90.62,90.62,0,0,1,37.17,7.69,99.28,99.28,0,0,1,30.12,20.51,94.58,94.58,0,0,1,27.55,67.29A96.23,96.23,0,0,1,1100.84,977Z"/><path class="cls-2" d="M1524.11,949.12l-49.34,78.18a173,173,0,0,0-29.8-25.95q-16.35-11.21-33-11.22a53.8,53.8,0,0,0-19.54,4.17,56.67,56.67,0,0,0-19.87,13.78q-9.3,9.61-15.7,25.31t-6.41,38.77v208.92h-92.28V910.67h92.28V950.4q16.66-23.7,36.85-36.53a82.57,82.57,0,0,1,45.18-12.81q24.35,0,47.74,13.14A185,185,0,0,1,1524.11,949.12Z"/><path class="cls-2" d="M1939.37,1095.87q0,41.67-15.38,77.22a188.4,188.4,0,0,1-42.3,61.52,201.87,201.87,0,0,1-140.34,56.08,196.83,196.83,0,0,1-76.9-15.06,199.13,199.13,0,0,1-62.81-41.34,191.82,191.82,0,0,1-42.29-61.84q-15.37-35.57-15.38-76.58a185.9,185.9,0,0,1,15.7-75.94,200.12,200.12,0,0,1,42.61-62.16,197.25,197.25,0,0,1,139.07-56.71,199.09,199.09,0,0,1,77.22,15.06,201.38,201.38,0,0,1,63.12,41A187.56,187.56,0,0,1,1924,1019,193.26,193.26,0,0,1,1939.37,1095.87Zm-92.28,0a116.6,116.6,0,0,0-8.32-44.21,115.21,115.21,0,0,0-22.68-35.89,103.8,103.8,0,0,0-33.54-24,101,101,0,0,0-81.78,0,103.91,103.91,0,0,0-33.54,24,118.28,118.28,0,0,0,0,160.21,104.21,104.21,0,0,0,33.54,24,101,101,0,0,0,81.78,0,104.1,104.1,0,0,0,33.54-24,115.21,115.21,0,0,0,22.68-35.89A116.62,116.62,0,0,0,1847.09,1095.87Z"/><path class="cls-2" d="M2339.89,1281.08h-93.57v-19.23a117.15,117.15,0,0,1-39.09,21.47,147.2,147.2,0,0,1-44.85,6.73q-39.11,0-71.78-15.72a178,178,0,0,1-56.39-42.37,193.67,193.67,0,0,1-36.85-61.94,211.68,211.68,0,0,1-13.14-74.47q0-41.07,15.06-77t40-62.26a189.33,189.33,0,0,1,57-41.4,153.28,153.28,0,0,1,66-15.09,166.19,166.19,0,0,1,46.14,6.45q22.42,6.46,38.45,18.09V749.18h92.92Zm-92.28-99.33V1003.59q-12.87-9-32.17-15.38t-34.09-6.41q-23.16,0-42.14,8a96.66,96.66,0,0,0-33.12,23.07,104.63,104.63,0,0,0-21.87,36.21q-7.71,21.15-7.72,46.78,0,25,7.72,45.82a110.54,110.54,0,0,0,21.23,35.89,93.52,93.52,0,0,0,32.48,23.39,102,102,0,0,0,41.49,8.33Q2216.08,1209.3,2247.61,1181.75Z"/><path class="cls-2" d="M2745.53,1281.08h-92.28v-28.2a97,97,0,0,1-20.83,15.7,168.18,168.18,0,0,1-51.9,18.9,142.4,142.4,0,0,1-26,2.57,164.83,164.83,0,0,1-54.15-9,126.92,126.92,0,0,1-45.82-27.56q-19.87-18.58-31.72-48.06T2411,1135.6V910.67h92.28v220.45q0,20.52,6.09,35.25a74.69,74.69,0,0,0,16,24.67,62.68,62.68,0,0,0,23.07,14.74,78.78,78.78,0,0,0,27.24,4.8q44.85,0,77.54-30.76V910.67h92.28Z"/><path class="cls-2" d="M3156.3,1225.83a184.72,184.72,0,0,1-67.93,48.65,215.43,215.43,0,0,1-83.31,16.21,199,199,0,0,1-76.23-14.71,191.79,191.79,0,0,1-62.27-40.63,189.57,189.57,0,0,1-41.68-61.75q-15.28-35.82-15.27-77.41,0-40.93,15.27-76.45A196.82,196.82,0,0,1,2866.25,958a189.87,189.87,0,0,1,61.94-41.26,196.81,196.81,0,0,1,76.87-15A212.09,212.09,0,0,1,3085.17,917q37.8,15.25,66.65,46.42l-62.17,63.28a121.31,121.31,0,0,0-34.28-30.76q-20.19-12.17-49-12.17a92,92,0,0,0-40.06,9,111.35,111.35,0,0,0-56.07,59.77,117.5,117.5,0,0,0,22.43,123.07,107.3,107.3,0,0,0,33.32,24.1,94.14,94.14,0,0,0,40.38,9q27.54,0,50-13.14a106.35,106.35,0,0,0,35.89-33.64Z"/><path class="cls-2" d="M3584.38,1095.23q0,9-1,18.59t-2.25,19.86H3285.11a122.69,122.69,0,0,0,37.49,55.43q26.58,22.76,67.61,22.75a151.88,151.88,0,0,0,50-8.65q25-8.64,41.65-23.39l58.32,58.32q-38.44,28.83-75.3,40.69a252.81,252.81,0,0,1-77.86,11.86q-41.67,0-77.86-15.38a198.82,198.82,0,0,1-62.8-41.66,194.35,194.35,0,0,1-42-61.84,195.17,195.17,0,0,1,0-151.88,192.06,192.06,0,0,1,42.3-61.84,203.94,203.94,0,0,1,62.8-41.65q35.88-15.39,76.9-15.38a199.19,199.19,0,0,1,75,14.42,203.92,203.92,0,0,1,63.44,40,188.24,188.24,0,0,1,43.58,61.2Q3584.37,1052.3,3584.38,1095.23Zm-96.77-35.88q-10.91-35.25-38.77-56.72a100.78,100.78,0,0,0-63.12-21.47,98.53,98.53,0,0,0-62.16,21.47q-27.57,21.48-38.45,56.72Z"/><path class="cls-2" d="M3908,949.12l-49.34,78.18a173,173,0,0,0-29.8-25.95q-16.35-11.21-33-11.22a53.8,53.8,0,0,0-19.54,4.17,56.67,56.67,0,0,0-19.87,13.78q-9.3,9.61-15.7,25.31t-6.41,38.77v208.92h-92.28V910.67h92.28V950.4q16.66-23.7,36.85-36.53a82.57,82.57,0,0,1,45.18-12.81q24.34,0,47.74,13.14A185,185,0,0,1,3908,949.12Z"/></g></g></svg>