<svg xmlns="http://www.w3.org/2000/svg" viewBox="0 0 1666 1902.17"><defs><style>.cls-1{fill:#fff;}.cls-2{fill:#ff791f;}</style></defs><g id="Layer_2" data-name="Layer 2"><g id="Layer_1-2" data-name="Layer 1"><path class="cls-1" d="M1655.78,892.16q-20.44-59.46-79.91-92.91L267.6,26.18Q215.57-7.27,152.38,2T44.6,57.77Q0,104.23,0,178.56V1724.7q0,66.9,42.74,115.21t105.93,59.47q63.18,11.14,118.93-22.3L1575.87,1104q59.48-33.45,79.91-92.91T1655.78,892.16Zm-822.5,368.49c-2.44,1.54-5,3-7.53,4.43a190.71,190.71,0,0,1-48.61,18.51,274.25,274.25,0,0,1-63.84,7.64q-56.14,0-94.67-13.76T557,1235.09a153.73,153.73,0,0,1-19-30.45,210.36,210.36,0,0,1-14.62-42.2q-10.47-44-10.46-103.48V780.46H429.29V719.92a375,375,0,0,0,129.9-106.78q52.83-68.24,66-161.82h46.24v186H832.18v143.1H671.47v290.37q0,48.6,20.91,64.05T743,1150.33q18.71,0,45.13-6.61t45.13-22Z"/><path class="cls-2" d="M1108.48,1070q-23.12,35.25-61.64,57.79T961,1150.33a161.63,161.63,0,0,1-69.35-15.45,184.1,184.1,0,0,1-57.24-41.4q-24.23-25.95-38.53-61.26a204.06,204.06,0,0,1,0-150.14,191.28,191.28,0,0,1,96.32-102.67A158.17,158.17,0,0,1,961,764q49.54,0,84.21,20.91a208.47,208.47,0,0,1,58.9,52.84L1210.85,729q-49.53-53.5-114.48-79.74t-137.6-26.21q-67.35,0-126.59,23.63V780.46H672.7c-.41.67-.83,1.33-1.23,2v288.37q0,48.6,20.91,64.05T743,1150.33q18.71,0,45.13-6.61t45.13-22v138.94c-2.44,1.54-5,3-7.53,4.43.7.29,1.38.6,2.08.88q61.59,25.26,130.94,25.27,76,0,143.1-27.85t116.69-83.55Z"/><path class="cls-2" d="M513,1059V964.78a278.09,278.09,0,0,0-59.42-39.56,476,476,0,0,0-77.06-30.28q-62.75-18.71-96.32-37.42t-33.57-44a41.58,41.58,0,0,1,8.8-25.87A66.41,66.41,0,0,1,278,768.9a131.31,131.31,0,0,1,29.72-11A129,129,0,0,1,337.94,754q41.82,0,77.06,19.82t62.74,53.94L513,792.18V780.46H429.29V719.92a375.86,375.86,0,0,0,75-49.33Q430.87,622,334.11,622a309.87,309.87,0,0,0-89.37,13.21q-44.15,13.2-78.9,38a196.58,196.58,0,0,0-56.26,61.65q-21.51,36.88-21.52,83.11,0,41.85,16.52,73.75a197.89,197.89,0,0,0,44,56.69,266.78,266.78,0,0,0,62.74,41.83A468.18,468.18,0,0,0,284,1018.23q63.84,18.74,99.08,38t35.22,47.88q0,27.54-24.77,41.28t-62.19,13.76A165.36,165.36,0,0,1,251,1138.77q-37.44-20.36-66-56.69L89.16,1179q46.35,59.44,107.57,86.41t134.06,27a315.45,315.45,0,0,0,87.15-12.66q44.12-12.64,79.43-37.43a203.82,203.82,0,0,0,40.66-37.6,210.36,210.36,0,0,1-14.62-42.2Q512.94,1118.42,513,1059Z"/></g></g></svg>